# xmcd CD database file
#
# Track frame offsets:
#	150
#	16047
#	31400
#	45951
#	64656
#	78600
#	95751
#	116633
#	133577
#	148224
#	163434
#	179255
#	196796
#
# Disc length: 2812 seconds
#
# Revision: 0
# Processed by: cddbd v1.5.1PL2 Copyright (c) Steve Scherf et al.
# Submitted via: CDex 1.51
#
DISCID=b10afa0d
DTITLE=Norah Jones - Feels Like Home
DYEAR=2005
DGENRE=Jazz
TTITLE0=Sunrise
TTITLE1=What I Am To You?
TTITLE2=Those Sweet Words
TTITLE3=Carnival Town
TTITLE4=In The Morning
TTITLE5=Be Here To Love Me
TTITLE6=Creepin' In
TTITLE7=Toes
TTITLE8=Humble Me
TTITLE9=Alove Ground
TTITLE10=The Long Way Home
TTITLE11=The Prettiest Thing
TTITLE12=Don't Miss You At All
EXTD=YEAR: 2005
EXTT0=
EXTT1=
EXTT2=
EXTT3=
EXTT4=
EXTT5=
EXTT6=
EXTT7=
EXTT8=
EXTT9=
EXTT10=
EXTT11=
EXTT12=
PLAYORDER=
